<svg width="26" height="27" viewBox="0 0 26 27" fill="none" xmlns="http://www.w3.org/2000/svg">
<rect width="26" height="27" rx="5" fill="#5B4F4B"/>
<path d="M13.4 14.272C13.4 15.1307 13.264 15.912 12.992 16.616C12.72 17.32 12.336 17.9227 11.84 18.424C11.344 18.9253 10.7467 19.3147 10.048 19.592C9.35467 19.864 8.58667 20 7.744 20H3.464V8.536H7.744C8.58667 8.536 9.35467 8.67467 10.048 8.952C10.7467 9.224 11.344 9.61333 11.84 10.12C12.336 10.6213 12.72 11.224 12.992 11.928C13.264 12.632 13.4 13.4133 13.4 14.272ZM11.808 14.272C11.808 13.568 11.712 12.9387 11.52 12.384C11.328 11.8293 11.056 11.36 10.704 10.976C10.352 10.592 9.92533 10.2987 9.424 10.096C8.92267 9.89333 8.36267 9.792 7.744 9.792H5.016V18.744H7.744C8.36267 18.744 8.92267 18.6427 9.424 18.44C9.92533 18.2373 10.352 17.9467 10.704 17.568C11.056 17.184 11.328 16.7147 11.52 16.16C11.712 15.6053 11.808 14.976 11.808 14.272ZM22.7079 18.736L22.6999 20H15.6359V8.536H22.6999V9.8H17.1879V13.608H21.6519V14.824H17.1879V18.736H22.7079Z" fill="#F5F5F5"/>
</svg>
