<svg width="40" height="41" viewBox="0 0 40 41" fill="none" xmlns="http://www.w3.org/2000/svg">
<path d="M20 7.5C27.1797 7.5 33 13.3248 33 20.5098C32.9999 27.2522 27.8742 32.796 21.3096 33.4531V22.9551H24.334V20.9551H21.3096V18.2139C21.3096 17.9114 21.3525 17.7528 21.3906 17.6709C21.4183 17.6117 21.4586 17.5556 21.5732 17.4912C21.8879 17.3145 22.5704 17.1729 24.0234 17.1729V15.1729C22.5885 15.1729 21.414 15.2864 20.5938 15.7471C20.1414 16.0013 19.7945 16.3605 19.5771 16.8271C19.3704 17.2712 19.3096 17.7513 19.3096 18.2139V20.9551H15.667V22.9551H19.3096V33.5C12.451 33.1408 7.00015 27.4628 7 20.5098C7 13.3248 12.8203 7.5 20 7.5Z" fill="currentColor"/>
</svg>
