<svg width="40" height="41" viewBox="0 0 40 41" fill="none" xmlns="http://www.w3.org/2000/svg">
<path d="M20.0665 17.5004C22.2857 17.5007 24.1145 19.3045 24.1145 21.5669C24.1144 23.8292 22.2856 25.6331 20.0665 25.6334C17.8473 25.6331 16.0174 23.8292 16.0173 21.5669C16.0173 19.3045 17.8473 17.5006 20.0665 17.5004Z" fill="#5B4F4B"/>
<path fill-rule="evenodd" clip-rule="evenodd" d="M26.9461 7.5C30.289 7.5 32.9999 10.1861 33 13.4997V28.5003C32.9999 31.8139 30.289 34.5 26.9461 34.5H13.0526C9.70993 34.4999 7.00015 31.8138 7 28.5003V13.4997C7.00015 10.1862 9.70993 7.50014 13.0526 7.5H26.9461ZM20.0665 15.5C16.7163 15.5003 13.9993 18.2165 13.9993 21.5669L14.0078 21.8785C14.1649 24.9804 16.6517 27.4677 19.7533 27.6254L20.0665 27.6337C23.3121 27.6334 25.9617 25.0839 26.124 21.8785L26.1324 21.5669C26.1324 18.3212 23.5837 15.6711 20.3784 15.5084L20.0665 15.5ZM27.6752 12.5002C26.7499 12.5002 25.9994 13.2503 25.9994 14.1757C25.9995 15.101 26.7499 15.8512 27.6752 15.8512C28.6005 15.8512 29.3509 15.101 29.351 14.1757C29.351 13.2503 28.6006 12.5002 27.6752 12.5002Z" fill="currentColor"/>
</svg>
