<svg width="40" height="40" viewBox="0 0 40 40" fill="none" xmlns="http://www.w3.org/2000/svg">
<path d="M29.4375 26.375C30.0243 26.375 30.5 26.8507 30.5 27.4375C30.5 28.0243 30.0243 28.5 29.4375 28.5H10.5625C9.9757 28.5 9.5 28.0243 9.5 27.4375C9.5 26.8507 9.9757 26.375 10.5625 26.375H29.4375ZM29.4375 18.9375C30.0243 18.9375 30.5 19.4132 30.5 20C30.5 20.5868 30.0243 21.0625 29.4375 21.0625H10.5625C9.9757 21.0625 9.5 20.5868 9.5 20C9.5 19.4132 9.9757 18.9375 10.5625 18.9375H29.4375ZM29.4375 11.5C30.0243 11.5 30.5 11.9757 30.5 12.5625C30.5 13.1493 30.0243 13.625 29.4375 13.625H10.5625C9.9757 13.625 9.5 13.1493 9.5 12.5625C9.5 11.9757 9.9757 11.5 10.5625 11.5H29.4375Z" fill="#5B4F4B"/>
</svg>
