<svg width="40" height="41" viewBox="0 0 40 41" fill="none" xmlns="http://www.w3.org/2000/svg">
<path d="M29.1951 11.2917C26.7491 8.85417 23.4878 7.5 20.0453 7.5C12.8885 7.5 7.09059 13.2778 7.09059 20.4097C7.09059 22.6667 7.72474 24.9236 8.81185 26.8194L7 33.5L13.885 31.6944C15.7875 32.6875 17.8711 33.2292 20.0453 33.2292C27.2021 33.2292 33 27.4514 33 20.3194C32.9094 16.9792 31.6411 13.7292 29.1951 11.2917ZM26.2962 25.0139C26.0244 25.7361 24.7561 26.4583 24.1219 26.5486C23.5784 26.6389 22.8537 26.6389 22.1289 26.4583C21.676 26.2778 21.0418 26.0972 20.3171 25.7361C17.0557 24.3819 14.9721 21.1319 14.7909 20.8611C14.6098 20.6806 13.4321 19.1458 13.4321 17.5208C13.4321 15.8958 14.2474 15.1736 14.5192 14.8125C14.7909 14.4514 15.1533 14.4514 15.4251 14.4514C15.6063 14.4514 15.878 14.4514 16.0592 14.4514C16.2404 14.4514 16.5122 14.3611 16.784 14.9931C17.0557 15.625 17.6899 17.25 17.7805 17.3403C17.8711 17.5208 17.8711 17.7014 17.7805 17.8819C17.6899 18.0625 17.5993 18.2431 17.4181 18.4236C17.2369 18.6042 17.0557 18.875 16.9652 18.9653C16.784 19.1458 16.6028 19.3264 16.784 19.5972C16.9652 19.9583 17.5993 20.9514 18.5958 21.8542C19.8641 22.9375 20.8606 23.2986 21.223 23.4792C21.5854 23.6597 21.7665 23.5694 21.9477 23.3889C22.1289 23.2083 22.7631 22.4861 22.9443 22.125C23.1254 21.7639 23.3972 21.8542 23.669 21.9444C23.9408 22.0347 25.5714 22.8472 25.8432 23.0278C26.2056 23.2083 26.3868 23.2986 26.4773 23.3889C26.5679 23.6597 26.5679 24.2917 26.2962 25.0139Z" fill="currentColor"/>
</svg>
